# xmcd
#
# Track frame offsets:
#	150
#	22947
#	35940
#	60485
#	72247
#	90560
#	117240
#	146862
#	170935
#	180875
#	186682
#	221022
#	257637
#
# Disc length: 3707 seconds
#
# Revision: 0
# Processed by: cddbd v1.5.2PL0 Copyright (c) Steve Scherf et al.
# Submitted via: dBpowerAMP V4.0
#
DISCID=c50e790d
DTITLE=Marvin Gaye - Live!
DYEAR=1993
DGENRE=Soul
TTITLE0=I Heard It Through the Grapevine
TTITLE1=Come Get To This
TTITLE2=Let's Get It On
TTITLE3=God Is Love
TTITLE4=What's Going On
TTITLE5=Inner City Blues
TTITLE6=Joy
TTITLE7=Ain't Nothing Like the Real Thing
TTITLE8=Heaven Must Have Sent You
TTITLE9=If This World Were Mine
TTITLE10=Rockin' After Midnight
TTITLE11=Distant Lover
TTITLE12=Sexual Healing
EXTD=
EXTT0=
EXTT1=
EXTT2=
EXTT3=
EXTT4=
EXTT5=
EXTT6=
EXTT7=
EXTT8=
EXTT9=
EXTT10=
EXTT11=
EXTT12=
PLAYORDER=
